<svg xmlns="http://www.w3.org/2000/svg"  viewBox="0 0 48 48" width="144px" height="144px"><path d="M 0.09375 16 L 2.8046875 20.667969 L 0.0703125 20.667969 L 2.8300781 25.335938 L 0.85351562 25.335938 L 6.109375 33.005859 L 6.1484375 33.005859 L 7.6972656 35.263672 L 7.2675781 33.005859 L 24.199219 33.005859 L 40.732422 33.005859 L 40.302734 35.263672 L 41.851562 33.005859 L 41.890625 33.005859 L 47.146484 25.335938 L 45.169922 25.335938 L 47.929688 20.667969 L 45.195312 20.667969 L 47.90625 16 L 24.199219 16 L 0.09375 16 z M 5.3066406 19 L 24.199219 19 L 42.693359 19 L 39.984375 23.667969 L 42.671875 23.667969 L 39.910156 28.335938 L 41.453125 28.335938 L 40.308594 30.005859 L 24.199219 30.005859 L 7.6914062 30.005859 L 6.546875 28.335938 L 8.0898438 28.335938 L 5.328125 23.667969 L 8.015625 23.667969 L 5.3066406 19 z M 8.96875 21.085938 L 8.96875 25.375 L 12.839844 25.375 L 12.839844 26.164062 L 9 26.164062 L 9 27.914062 L 14.839844 27.914062 L 14.839844 23.625 L 10.96875 23.625 L 10.96875 22.835938 L 14.806641 22.835938 L 14.806641 21.085938 L 8.96875 21.085938 z M 26.419922 21.085938 L 26.419922 22.835938 L 28.322266 22.835938 L 28.322266 27.884766 L 30.322266 27.884766 L 30.322266 22.835938 L 32.226562 22.835938 L 32.226562 21.085938 L 26.419922 21.085938 z M 33.160156 21.085938 L 33.160156 27.914062 L 39 27.914062 L 39 26.164062 L 35.160156 26.164062 L 35.160156 25.375 L 39 25.375 L 39 23.625 L 35.160156 23.625 L 35.160156 22.835938 L 39 22.835938 L 39 21.085938 L 33.160156 21.085938 z M 15.773438 21.115234 L 15.773438 27.884766 L 17.710938 27.884766 L 17.710938 25.642578 L 18.890625 27.884766 L 19.431641 27.884766 L 20.613281 25.642578 L 20.613281 27.884766 L 22.548828 27.884766 L 22.548828 21.115234 L 20.865234 21.115234 L 19.160156 23.501953 L 17.457031 21.115234 L 15.773438 21.115234 z M 23.484375 21.115234 L 23.484375 27.886719 L 25.484375 27.886719 L 25.484375 21.115234 L 23.484375 21.115234 z"/></svg>